<mxfile host="65bd71144e">
    <diagram id="YnsuH4LNzArkPRJicwyz" name="Page-1">
        <mxGraphModel dx="859" dy="656" grid="0" gridSize="10" guides="1" tooltips="1" connect="1" arrows="1" fold="1" page="1" pageScale="1" pageWidth="1100" pageHeight="850" background="#FFFFFF" math="0" shadow="0">
            <root>
                <mxCell id="0"/>
                <mxCell id="1" parent="0"/>
                <mxCell id="2" value="&lt;font style=&quot;font-size: 12px;&quot;&gt;On-premises (Azure)&lt;br style=&quot;&quot;&gt;10.100.0.0/24&lt;br&gt;&lt;/font&gt;" style="whiteSpace=wrap;html=1;labelBackgroundColor=none;fontFamily=Verdana;fontSize=15;labelPosition=center;verticalLabelPosition=bottom;align=center;verticalAlign=top;dashed=1;strokeColor=#808080;" parent="1" vertex="1">
                    <mxGeometry x="35" y="186" width="236" height="159.5" as="geometry"/>
                </mxCell>
                <mxCell id="3" value="GatewaySubnet&lt;br&gt;10.100.0.32/27" style="whiteSpace=wrap;html=1;labelBackgroundColor=none;fontFamily=Verdana;fillColor=#f5f5f5;fontColor=#333333;strokeColor=none;fontSize=10;labelPosition=center;verticalLabelPosition=bottom;align=center;verticalAlign=top;" parent="1" vertex="1">
                    <mxGeometry x="46.39999999999998" y="196" width="103.69" height="112.19" as="geometry"/>
                </mxCell>
                <mxCell id="4" value="" style="group;fillColor=default;labelPosition=center;verticalLabelPosition=top;align=center;verticalAlign=bottom;container=0;" parent="1" vertex="1" connectable="0">
                    <mxGeometry x="695" y="171" width="155" height="250" as="geometry"/>
                </mxCell>
                <mxCell id="5" value="az-hub-vnet&lt;br style=&quot;font-size: 11px;&quot;&gt;10.0.0.0/24" style="whiteSpace=wrap;html=1;fillColor=none;strokeColor=#007FFF;dashed=1;labelPosition=center;verticalLabelPosition=top;align=center;verticalAlign=bottom;fontSize=11;" parent="1" vertex="1">
                    <mxGeometry x="705" y="86" width="134" height="218" as="geometry"/>
                </mxCell>
                <mxCell id="6" value="" style="aspect=fixed;html=1;points=[];align=center;image;fontSize=12;image=img/lib/azure2/networking/Virtual_Networks.svg;dashed=1;" parent="1" vertex="1">
                    <mxGeometry x="823.9985556915544" y="87.08" width="21.64138017356475" height="12.920226969292392" as="geometry"/>
                </mxCell>
                <mxCell id="7" value="GatewaySubnet" style="whiteSpace=wrap;html=1;labelBackgroundColor=none;fontFamily=Verdana;fillColor=#f5f5f5;fontColor=#333333;strokeColor=none;fontSize=10;labelPosition=left;verticalLabelPosition=bottom;align=right;verticalAlign=top;spacingLeft=0;spacingBottom=0;spacingRight=-63;spacing=-18;" parent="1" vertex="1">
                    <mxGeometry x="709.71" y="190" width="125.29" height="106" as="geometry"/>
                </mxCell>
                <mxCell id="9" value="Subnet1" style="whiteSpace=wrap;html=1;labelBackgroundColor=none;fontFamily=Verdana;fillColor=#f5f5f5;fontColor=#333333;strokeColor=none;fontSize=10;labelPosition=center;verticalLabelPosition=top;align=center;verticalAlign=bottom;" parent="1" vertex="1">
                    <mxGeometry x="709.71" y="100" width="125.56" height="84" as="geometry"/>
                </mxCell>
                <mxCell id="10" style="edgeStyle=none;html=1;fontFamily=Verdana;fontSize=10;entryX=0.5;entryY=0.917;entryDx=0;entryDy=0;entryPerimeter=0;endArrow=none;endFill=0;opacity=50;startArrow=none;dashed=1;" parent="1" source="37" target="36" edge="1">
                    <mxGeometry relative="1" as="geometry">
                        <mxPoint x="556.7378092326915" y="460" as="sourcePoint"/>
                    </mxGeometry>
                </mxCell>
                <mxCell id="11" value="ER Circuit2: to On-premises" style="aspect=fixed;html=1;points=[];align=center;image;fontSize=12;image=img/lib/azure2/networking/ExpressRoute_Circuits.svg;labelBackgroundColor=none;fontFamily=Verdana;fillColor=default;labelPosition=center;verticalLabelPosition=bottom;verticalAlign=top;" parent="1" vertex="1">
                    <mxGeometry x="372.00000000000006" y="223.91000000000003" width="43.75" height="40" as="geometry"/>
                </mxCell>
                <mxCell id="12" style="edgeStyle=none;html=1;entryX=1;entryY=0.5;entryDx=0;entryDy=0;fontFamily=Verdana;fontSize=10;endArrow=none;endFill=0;opacity=50;exitX=0;exitY=0.5;exitDx=0;exitDy=0;fontColor=#007FFF;strokeColor=#007FFF;" parent="1" source="13" target="5" edge="1">
                    <mxGeometry relative="1" as="geometry">
                        <mxPoint x="465" y="151" as="sourcePoint"/>
                    </mxGeometry>
                </mxCell>
                <mxCell id="13" value="az-spk1-vnet&lt;br&gt;10.0.1.0/24" style="whiteSpace=wrap;html=1;fillColor=none;strokeColor=#6c8ebf;dashed=1;labelBackgroundColor=none;fontFamily=Verdana;fontSize=10;labelPosition=center;verticalLabelPosition=top;align=center;verticalAlign=bottom;" parent="1" vertex="1">
                    <mxGeometry x="916.04" y="55" width="140" height="116" as="geometry"/>
                </mxCell>
                <mxCell id="14" value="" style="aspect=fixed;html=1;points=[];align=center;image;fontSize=12;image=img/lib/azure2/networking/Virtual_Networks.svg;dashed=1;labelBackgroundColor=none;fontFamily=Verdana;fillColor=default;" parent="1" vertex="1">
                    <mxGeometry x="1028.94" y="57" width="20.1" height="12" as="geometry"/>
                </mxCell>
                <mxCell id="15" value="Subnet" style="whiteSpace=wrap;html=1;labelBackgroundColor=none;fontFamily=Verdana;fillColor=#f5f5f5;fontColor=#333333;strokeColor=none;fontSize=10;labelPosition=center;verticalLabelPosition=top;align=center;verticalAlign=bottom;" parent="1" vertex="1">
                    <mxGeometry x="925.04" y="72" width="120" height="94.79" as="geometry"/>
                </mxCell>
                <mxCell id="16" value="az-spk1-lxvm&lt;br&gt;10.0.1.4" style="aspect=fixed;html=1;points=[];align=center;image;fontSize=12;image=img/lib/azure2/compute/Virtual_Machine.svg;labelBackgroundColor=none;fontFamily=Verdana;fillColor=default;" parent="1" vertex="1">
                    <mxGeometry x="967.0413" y="82.99988651535381" width="34.086598798397866" height="31.616555407209614" as="geometry"/>
                </mxCell>
                <mxCell id="17" style="edgeStyle=none;html=1;exitX=0;exitY=0.5;exitDx=0;exitDy=0;entryX=1;entryY=0.5;entryDx=0;entryDy=0;fontFamily=Verdana;fontSize=10;endArrow=none;endFill=0;opacity=50;fontColor=#007FFF;strokeColor=#007FFF;" parent="1" source="18" target="5" edge="1">
                    <mxGeometry relative="1" as="geometry"/>
                </mxCell>
                <mxCell id="18" value="az-spk2-vnet&lt;br&gt;10.0.2.0/24" style="whiteSpace=wrap;html=1;fillColor=none;strokeColor=#6c8ebf;dashed=1;labelBackgroundColor=none;fontFamily=Verdana;fontSize=10;labelPosition=center;verticalLabelPosition=top;align=center;verticalAlign=bottom;" parent="1" vertex="1">
                    <mxGeometry x="917.04" y="233" width="140" height="116" as="geometry"/>
                </mxCell>
                <mxCell id="19" value="" style="aspect=fixed;html=1;points=[];align=center;image;fontSize=12;image=img/lib/azure2/networking/Virtual_Networks.svg;dashed=1;labelBackgroundColor=none;fontFamily=Verdana;fillColor=default;" parent="1" vertex="1">
                    <mxGeometry x="1029.04" y="236.19" width="20.1" height="12" as="geometry"/>
                </mxCell>
                <mxCell id="20" value="Subnet" style="whiteSpace=wrap;html=1;labelBackgroundColor=none;fontFamily=Verdana;fillColor=#f5f5f5;fontColor=#333333;strokeColor=none;fontSize=10;labelPosition=center;verticalLabelPosition=top;align=center;verticalAlign=bottom;" parent="1" vertex="1">
                    <mxGeometry x="926.04" y="250" width="120" height="94.79" as="geometry"/>
                </mxCell>
                <mxCell id="23" value="Subnet1&lt;br&gt;10.100.0.96/27" style="whiteSpace=wrap;html=1;labelBackgroundColor=none;fontFamily=Verdana;fillColor=#f5f5f5;fontColor=#333333;strokeColor=none;fontSize=10;labelPosition=center;verticalLabelPosition=bottom;align=center;verticalAlign=top;" parent="1" vertex="1">
                    <mxGeometry x="156.95999999999998" y="196" width="103.69" height="112.19" as="geometry"/>
                </mxCell>
                <mxCell id="26" value="&lt;span style=&quot;font-weight: normal;&quot;&gt;branch-vm1&lt;br&gt;10.100.0.100&lt;/span&gt;" style="aspect=fixed;html=1;points=[];align=center;image;fontSize=12;image=img/lib/azure2/compute/Virtual_Machine.svg;labelBackgroundColor=none;fontFamily=Verdana;fillColor=default;fontStyle=1" parent="1" vertex="1">
                    <mxGeometry x="81.20129999999997" y="219.28988651535383" width="34.086598798397866" height="31.616555407209614" as="geometry"/>
                </mxCell>
                <mxCell id="31" value="" style="edgeStyle=none;html=1;strokeColor=default;fontFamily=Verdana;fontSize=10;fontColor=default;endArrow=none;endFill=0;opacity=50;strokeWidth=1;dashed=1;" parent="1" source="21" target="11" edge="1">
                    <mxGeometry relative="1" as="geometry">
                        <mxPoint x="393.19059872744697" y="728" as="targetPoint"/>
                    </mxGeometry>
                </mxCell>
                <mxCell id="34" value="az-spk2-lxvm&lt;br&gt;10.0.2.4" style="aspect=fixed;html=1;points=[];align=center;image;fontSize=12;image=img/lib/azure2/compute/Virtual_Machine.svg;labelBackgroundColor=none;fontFamily=Verdana;fillColor=default;" parent="1" vertex="1">
                    <mxGeometry x="977.0412999999999" y="262.9998865153538" width="34.086598798397866" height="31.616555407209614" as="geometry"/>
                </mxCell>
                <mxCell id="35" value="az-hub-lxvm&lt;br&gt;10.0.0.4" style="aspect=fixed;html=1;points=[];align=center;image;fontSize=12;image=img/lib/azure2/compute/Virtual_Machine.svg;labelBackgroundColor=none;fontFamily=Verdana;fillColor=default;" parent="1" vertex="1">
                    <mxGeometry x="755.4612999999999" y="113.99988651535382" width="34.086598798397866" height="31.616555407209614" as="geometry"/>
                </mxCell>
                <mxCell id="36" value="az-hub-ergw&lt;br&gt;(AS 65515)" style="aspect=fixed;html=1;points=[];align=center;image;fontSize=12;image=img/lib/azure2/networking/Virtual_Network_Gateways.svg;glass=0;dashed=1;dashPattern=8 8;strokeColor=#E6E6E6;fontColor=#000000;fillColor=#CCCCCC;rounded=0;sketch=1;hachureGap=4;jiggle=2;curveFitting=1;fontFamily=Verdana;labelBackgroundColor=#f5f5f5;fontStyle=0" parent="1" vertex="1">
                    <mxGeometry x="755.4598245614035" y="208.00338841160658" width="27.943925233644855" height="37.081588785046726" as="geometry"/>
                </mxCell>
                <mxCell id="43" style="edgeStyle=none;html=1;endArrow=none;endFill=0;" parent="1" source="37" target="41" edge="1">
                    <mxGeometry relative="1" as="geometry"/>
                </mxCell>
                <mxCell id="37" value="ER Circuit1: to Azure" style="aspect=fixed;html=1;points=[];align=center;image;fontSize=12;image=img/lib/azure2/networking/ExpressRoute_Circuits.svg;labelBackgroundColor=none;fontFamily=Verdana;fillColor=default;labelPosition=center;verticalLabelPosition=bottom;verticalAlign=top;" parent="1" vertex="1">
                    <mxGeometry x="558" y="223.91000000000003" width="43.75" height="40" as="geometry"/>
                </mxCell>
                <mxCell id="44" style="edgeStyle=none;html=1;endArrow=none;endFill=0;" parent="1" source="41" target="11" edge="1">
                    <mxGeometry relative="1" as="geometry">
                        <mxPoint x="371" y="508.29" as="targetPoint"/>
                    </mxGeometry>
                </mxCell>
                <mxCell id="41" value="&lt;span style=&quot;color: rgb(0, 0, 0);&quot;&gt;Megaport Cloud Router (&lt;b&gt;MCR&lt;/b&gt;)&lt;br&gt;&lt;/span&gt;AS 65001&lt;br style=&quot;border-color: var(--border-color); color: rgb(0, 0, 0);&quot;&gt;&lt;div style=&quot;border-color: var(--border-color); color: rgb(0, 0, 0);&quot;&gt;&lt;br&gt;&lt;/div&gt;" style="sketch=0;outlineConnect=0;fontColor=#232F3E;gradientColor=none;fillColor=#4D27AA;strokeColor=none;dashed=0;verticalLabelPosition=top;verticalAlign=bottom;align=center;html=1;fontSize=12;fontStyle=0;aspect=fixed;pointerEvents=1;shape=mxgraph.aws4.customer_gateway;spacingLeft=1;labelPosition=center;" parent="1" vertex="1">
                    <mxGeometry x="456" y="153.74" width="60" height="60" as="geometry"/>
                </mxCell>
                <mxCell id="21" value="branch-ergw&lt;br&gt;AS 65515" style="aspect=fixed;html=1;points=[];align=center;image;fontSize=12;image=img/lib/azure2/networking/Virtual_Network_Gateways.svg;glass=0;dashed=1;dashPattern=8 8;strokeColor=#E6E6E6;fontColor=#000000;fillColor=#CCCCCC;rounded=0;sketch=1;hachureGap=4;jiggle=2;curveFitting=1;fontFamily=Verdana;labelBackgroundColor=none;" parent="1" vertex="1">
                    <mxGeometry x="196.99982456140356" y="226.83338841160656" width="27.943925233644855" height="37.081588785046726" as="geometry"/>
                </mxCell>
            </root>
        </mxGraphModel>
    </diagram>
</mxfile>